<svg version="1.2" xmlns="http://www.w3.org/2000/svg" viewBox="0 0 1280 720" width="1280" height="720">
	<title>Capemint logo</title>
	<style>
		.s0 { fill: #000000 } 
		.s1 { mix-blend-mode: color-dodge;fill: #000000 } 
	</style>
	<path id="M" class="s0" aria-label="M"  d="m605.9 282.4c-7.4 0-14.6 1.2-20.5 6-9.4 7.7-12.7 18.7-12.7 29.7 2.7-2.4 4-3.5 6.9-5.4 0-24.2 11.1-24.7 22.1-24.7 3.7 0 7.3 0.3 10.5 0.3-0.7 0.6-1.1 1.5-1.4 2.3l-19.1 51.3c-2.3 6.1-4.3 11.3-13.8 11.3-2.7 0-5.1-0.4-7.1-0.9l-4.7 6.4h6.1c12.5 0 21.6-8.2 25.4-18l17.9-46.7c0 0.3 0 0.7 0 1.2 0 9.4 2 41.2 2 59.4 0 1.9-0.1 3.7-0.1 5.2l0.4 0.1c14.8-33.1 22.7-54 33.3-63-2.3 10.9-3.6 25.5-3.6 38.9 0 8.9 0.6 17.4 1.9 23.8 5-2.3 10.5-5.7 15.6-10.2l-0.4-0.8c-3 1.8-6.1 2.8-8.7 2.8-0.8-5.2-1.2-11.2-1.2-18.1 0-13.7 1.4-30.7 3.7-51.2-10.6 2.4-27.2 33.7-34.3 57.7 0-3.8 0-7.5 0-11.2 0-15.5-0.4-30.4-1.8-45.2-5.3-0.4-10.9-1-16.4-1z"/>
	<path id="C" class="s1" aria-label="C"  d="m582.6 359q-17.9 0-27.5-9.4-9.6-9.4-9.6-26.9 0-17.1 9.5-26.4 9.6-9.3 27.4-9.3 14.5 0 23.6 6.1 9.1 6.1 10.8 17h-9q-1.7-8.6-8.3-13.4-6.6-4.9-16.6-4.9-13 0-20 8-6.9 8-6.9 22.9 0 15.2 7 23.4 7 8.1 20.1 8.1 10 0 16.5-4.8 6.5-4.8 8.2-13.5h9q-1.7 10.9-10.8 17-9.1 6.1-23.4 6.1z"/>
</svg>